<svg xmlns="http://www.w3.org/2000/svg" width="172" height="172" fill="none"><circle cx="110.088" cy="101.336" r="34.786" fill="#A2D9F6" fill-opacity=".5"/><circle cx="110.088" cy="101.6" r="26.03" fill="#A2D9F6" fill-opacity=".5"/><circle cx="109.627" cy="101.6" r="16.843" fill="#A2D9F6"/><path fill="#fff" stroke="#154E6C" stroke-width="3" d="M105.944 92.366c-6.66 11.197 5.865 38.017 10.92 46.712H68.738c2.295-4.911 7.06-16.358 7.767-22.854.883-8.12-5.12-5.473-14.846-1.942-9.727 3.53-11.985-9.179-11.985-15.181 0-6.002-.177-5.296-5.649-6.735s-5.472-2.797-1.06-7.74c3.531-3.954 4.025-8.822 3.831-10.762-1.617-9.909-3.572-32.274 12.201-42.466 15.773-10.191 36.271-9.391 46.947 0 21.097 18.558 6.66 49.772 0 60.968Z"/><path stroke="#185068" stroke-linecap="round" stroke-linejoin="round" stroke-width="3" d="m110.088 101.488 5.29-7.86 3.024 5.895 6.802-7.86m-13.756 17.534 4.989-3.477 1.965 5.291 9.069-3.174"/><rect width="13.932" height="4.578" x="83.981" y="101.337" fill="#185068" rx="2.289"/><rect width="13.932" height="4.578" x="85.286" y="110.713" fill="#185068" rx="2.289" transform="rotate(-9.777 85.286 110.713)"/><rect width="13.932" height="4.578" x="87.537" y="119.39" fill="#185068" rx="2.289" transform="rotate(-17.402 87.537 119.39)"/><rect width="13.932" height="4.578" x="90.581" y="127.925" fill="#185068" rx="2.289" transform="rotate(-17.402 90.581 127.925)"/><circle cx="85.634" cy="85.884" r="84.89" stroke="#93B7C4" stroke-dasharray="2 2"/></svg>