<svg xmlns="http://www.w3.org/2000/svg" width="172" height="172" fill="none"><circle cx="82.025" cy="90.156" r="30.018" fill="#A2D9F6" fill-opacity=".5"/><circle cx="82.025" cy="90.383" r="22.463" fill="#A2D9F6" fill-opacity=".5"/><circle cx="81.628" cy="90.383" r="14.535" fill="#A2D9F6"/><path stroke="#185068" stroke-linecap="round" stroke-linejoin="round" stroke-width="3" d="M71.386 54.28c2.727-.055 3.588-1.764 3.678-2.611-.597-.452-1.865-1.691-2.155-3.035-.362-1.679 4.467-3.449 8.94-8.838 4.472-5.39 8.667 4.22 10.849 7.096 2.181 2.878-1.126 4.258-5.53 8.77-4.405 4.51-2.963 4.593-4.782 3.395-1.82-1.198-2.098-.032-4.791 2.019-2.693 2.05 3.782 7.274 1.305 7.096-2.478-.177-2.706 1.645-4.06 7.724-1.353 6.08-4.779 2.426-6.887-3.27-2.108-5.696 3.813-8.656.377-8.429-3.435.227-3.876-6.238-3.738-8.965.139-2.726 3.385-.882 6.794-.951ZM90.105 67.982c2.458 1.182 3.998.047 4.461-.669-.329-.673-.9-2.351-.552-3.68.436-1.663 5.544-1.06 11.968-3.848 6.425-2.788 5.827 7.68 6.474 11.232.646 3.552-2.928 3.29-8.895 5.325s-4.718 2.76-5.8.87c-1.082-1.89-1.857-.976-5.186-.363-3.33.613.088 8.197-2.042 6.92-2.13-1.277-3.156.245-7.11 5.058-3.954 4.812-5.36.005-4.668-6.029.692-6.034 7.312-6 4.144-7.35-3.167-1.35-.64-7.316.715-9.686s3.418.742 6.49 2.22ZM96.557 91.62c1.765 2.08 3.634 1.668 4.348 1.202-.027-.749.133-2.514.991-3.587 1.073-1.342 5.496 1.284 12.499 1.347 7.003.063 2.204 9.384 1.352 12.893-.853 3.509-4.012 1.817-10.292 1.252-6.279-.565-5.432.605-5.653-1.562-.22-2.167-1.3-1.646-4.591-2.439-3.291-.792-3.25 7.527-4.677 5.495-1.428-2.033-2.984-1.059-8.552 1.732-5.569 2.791-4.9-2.173-1.816-7.405 3.084-5.232 9.119-2.512 6.773-5.032s2.387-6.946 4.588-8.56c2.202-1.616 2.823 2.066 5.03 4.665ZM90.9 115.408c1.357 2.366 3.27 2.302 4.057 1.974.11-.741.588-2.448 1.628-3.347 1.299-1.124 5.169 2.264 12.044 3.602 6.874 1.337.457 9.629-1.02 12.923-1.477 3.295-4.276 1.056-10.347-.644-6.072-1.699-5.452-.394-5.274-2.565.178-2.171-.978-1.856-4.07-3.235-3.092-1.378-4.567 6.809-5.6 4.55-1.033-2.258-2.741-1.584-8.725.146-5.983 1.729-4.42-3.029-.435-7.612s9.423-.809 7.576-3.714c-1.848-2.905 3.612-6.395 6.07-7.582 2.46-1.186 2.4 2.547 4.096 5.504Z"/><path stroke="#185068" stroke-linecap="round" stroke-linejoin="round" stroke-width="4" d="M58.246 77.96c6.106 2.658 17.033 14.373 11.89 39.963"/><circle cx="85.634" cy="86.383" r="84.89" stroke="#93B7C4" stroke-dasharray="2 2"/></svg>