<svg xmlns="http://www.w3.org/2000/svg" width="172" height="172" fill="none"><circle cx="86.226" cy="85.884" r="84.89" stroke="#93B7C4" stroke-dasharray="2 2"/><circle cx="87.192" cy="79.155" r="38.469" fill="#A2D9F6" fill-opacity=".5"/><circle cx="87.192" cy="79.446" r="28.787" fill="#A2D9F6" fill-opacity=".5"/><circle cx="86.682" cy="79.446" r="18.627" fill="#A2D9F6"/><path stroke="#185068" stroke-linecap="round" stroke-linejoin="round" stroke-width="3" d="M62.68 36.204c2.525 1.718 4.42.716 5.051 0-.252-.8-.606-2.753 0-4.167.758-1.768 6.315-.253 13.892-2.274 7.578-2.02 5.178 9.472 5.304 13.513.127 4.042-3.788 3.158-10.734 4.42-6.946 1.264-5.683 2.274-6.567 0-.885-2.273-1.895-1.389-5.684-1.262-3.788.126-1.263 9.093-3.41 7.325-2.146-1.768-3.536-.253-8.714 4.42-5.177 4.673-5.935-.884-4.167-7.451 1.768-6.567 9.093-5.43 5.81-7.452-3.284-2.02.504-8.208 2.399-10.608 1.894-2.4 3.662 1.39 6.82 3.536ZM64.616 62.646c2.452 1.821 4.386.9 5.047.21-.219-.81-.49-2.776.174-4.163.83-1.735 6.32.01 13.975-1.692 7.655-1.703 4.778 9.68 4.736 13.722-.043 4.043-3.917 2.997-10.91 3.969s-5.773 2.034-6.562-.274c-.788-2.308-1.834-1.467-5.625-1.499-3.79-.031-1.641 9.033-3.712 7.177-2.072-1.856-3.523-.4-8.891 4.053-5.369 4.452-5.894-1.131-3.854-7.619 2.04-6.488 9.312-5.047 6.115-7.202-3.196-2.156.848-8.181 2.84-10.5 1.993-2.318 3.602 1.541 6.667 3.818ZM64.616 90.09c2.452 1.82 4.386.899 5.047.21-.219-.81-.49-2.776.174-4.164.83-1.735 6.32.01 13.975-1.692 7.655-1.703 4.778 9.68 4.736 13.723-.043 4.043-3.917 2.996-10.91 3.968s-5.773 2.035-6.562-.274c-.788-2.308-1.834-1.467-5.625-1.498-3.79-.032-1.641 9.032-3.712 7.176-2.072-1.856-3.523-.4-8.891 4.053-5.369 4.453-5.894-1.131-3.854-7.619 2.04-6.487 9.312-5.046 6.115-7.202-3.196-2.156.848-8.18 2.84-10.5 1.993-2.318 3.602 1.541 6.667 3.818ZM64.616 117.533c2.452 1.821 4.386.899 5.047.21-.219-.809-.49-2.776.174-4.164.83-1.735 6.32.011 13.975-1.692 7.655-1.703 4.778 9.68 4.736 13.723-.043 4.043-3.917 2.997-10.91 3.969s-5.773 2.034-6.562-.274c-.788-2.308-1.834-1.467-5.625-1.499-3.79-.032-1.641 9.032-3.712 7.176-2.072-1.856-3.523-.399-8.891 4.053-5.369 4.453-5.894-1.131-3.854-7.618 2.04-6.488 9.312-5.047 6.115-7.203-3.196-2.156.848-8.18 2.84-10.499 1.993-2.318 3.602 1.541 6.667 3.818Z"/><rect width="25.03" height="5.049" x="78.092" y="77.321" fill="#154E6C" rx="2.525" transform="rotate(-4.977 78.092 77.32)"/><rect width="25.03" height="5.049" x="68.569" y="51.688" fill="#154E6C" rx="2.525" transform="rotate(-9.456 68.569 51.688)"/><rect width="25.03" height="5.049" x="69.761" y="105.702" fill="#154E6C" rx="2.525" transform="rotate(-4.853 69.761 105.702)"/></svg>