<svg xmlns="http://www.w3.org/2000/svg" width="171" height="172" fill="none"><circle cx="65.087" cy="81.5" r="34.609" fill="#A2D9F6" fill-opacity=".5"/><circle cx="65.087" cy="81.762" r="25.898" fill="#A2D9F6" fill-opacity=".5"/><circle cx="64.628" cy="81.763" r="16.758" fill="#A2D9F6"/><path fill="#fff" stroke="#154E6C" stroke-linecap="round" stroke-linejoin="round" stroke-width="3" d="M74.382 131.525c-.032-12.748 5.403-26.025 10.684-28.642-2.499-8.113-7.076-17.972-10.684-15.23-11.943 9.075-17.437 56.057-8.638 63.194 5.91 4.793 8.677-3.388 8.638-19.322Z"/><path fill="#fff" d="M82.564 61.996c5.137-10.788 12.7-12.914 15.84-12.629 18.194 5.994 11.344 20.549 4.495 31.465-6.85 10.917-10.06 21.191-8.562 29.325 1.498 8.133 1.712 47.304-5.78 44.736-5.993-2.055-8.062-27.399-8.347-39.813-4.78-1.713-14.256-7.663-13.913-17.766.428-12.629 9.846-21.833 16.267-35.318ZM105.212 36.968c4.605-5.473 10.538-3.67 12.929-2.086 7.007 4.922 4.505 13.597 1.669 16.933-2.836 3.337-6.507 4.255-11.595.918-5.088-3.337-8.759-8.925-3.003-15.765Z"/><path stroke="#185068" stroke-linecap="round" stroke-linejoin="round" stroke-width="3" d="M82.564 61.996c5.137-10.788 12.7-12.914 15.84-12.629 18.194 5.994 11.344 20.549 4.495 31.465-6.85 10.917-10.06 21.191-8.562 29.325 1.498 8.133 1.712 47.304-5.78 44.736-5.993-2.055-8.062-27.399-8.347-39.813-4.78-1.713-14.256-7.663-13.913-17.766.428-12.629 9.846-21.833 16.267-35.318ZM105.212 36.968c4.605-5.473 10.538-3.67 12.929-2.086 7.007 4.922 4.505 13.597 1.669 16.933-2.836 3.337-6.507 4.255-11.595.918-5.088-3.337-8.759-8.925-3.003-15.765Z"/><path fill="#fff" d="M111.118 82.16c-9.255-4.992-9.844-14.054-8.981-17.962-7.185-1.826-8.779 3.806-8.677 6.85-.609 12.483 11.873 23.443 21.463 25.878 9.59 2.436 7.764-8.524-3.805-14.765Z"/><path stroke="#185068" stroke-linecap="round" stroke-linejoin="round" stroke-width="3" d="M102.137 64.198c-.863 3.908-.274 12.97 8.981 17.963 11.569 6.24 13.395 17.2 3.805 14.765-9.59-2.435-22.072-13.395-21.463-25.878"/><path stroke="#185068" stroke-linecap="round" stroke-linejoin="round" stroke-width="4" d="m43.59 54.932 4.923 13.271 8.99-8.134 3.853 12.201m-1.712 14.984-17.552-3.64 4.923 12.415-13.7-2.996M72.059 63.28V53.22m-14.555 50.729-10.488 8.776"/><circle cx="85.576" cy="86.145" r="84.89" stroke="#93B7C4" stroke-dasharray="2 2"/></svg>