<svg xmlns="http://www.w3.org/2000/svg" width="172" height="172" fill="none"><circle cx="85.853" cy="93.686" r="38.469" fill="#A2D9F6" fill-opacity=".5"/><circle cx="85.853" cy="93.977" r="28.787" fill="#A2D9F6" fill-opacity=".5"/><circle cx="85.344" cy="93.977" r="18.627" fill="#A2D9F6"/><path stroke="#185068" stroke-linecap="round" stroke-linejoin="round" stroke-width="3" d="M79.964 36.464c2.526 1.718 4.42.716 5.052 0-.253-.8-.606-2.753 0-4.167.758-1.768 6.315-.253 13.892-2.274 7.578-2.02 5.178 9.472 5.304 13.513.127 4.042-3.788 3.158-10.734 4.42-6.946 1.264-5.683 2.274-6.568 0-.884-2.273-1.894-1.389-5.683-1.262-3.788.126-1.263 9.093-3.41 7.325-2.146-1.768-3.536-.253-8.714 4.42-5.178 4.673-5.935-.884-4.167-7.451 1.768-6.567 9.093-5.43 5.81-7.452-3.284-2.02.504-8.208 2.399-10.608 1.894-2.4 3.662 1.39 6.82 3.536ZM81.9 62.906c2.452 1.821 4.387.9 5.048.21-.22-.81-.491-2.776.173-4.163.831-1.735 6.32.01 13.975-1.692 7.655-1.703 4.779 9.68 4.736 13.722-.042 4.043-3.917 2.997-10.91 3.969-6.992.972-5.772 2.034-6.56-.274-.79-2.308-1.836-1.467-5.626-1.499-3.791-.032-1.642 9.033-3.713 7.177-2.071-1.856-3.522-.4-8.89 4.053-5.369 4.452-5.894-1.131-3.854-7.619 2.04-6.488 9.312-5.047 6.115-7.202-3.196-2.156.847-8.181 2.84-10.5 1.993-2.318 3.601 1.541 6.666 3.818ZM81.9 90.35c2.452 1.82 4.387.899 5.048.21-.22-.81-.491-2.776.173-4.164.831-1.735 6.32.01 13.975-1.692 7.655-1.703 4.779 9.68 4.736 13.723-.042 4.043-3.917 2.996-10.91 3.968-6.992.972-5.772 2.035-6.56-.274-.79-2.308-1.836-1.467-5.626-1.498-3.791-.032-1.642 9.032-3.713 7.176-2.071-1.856-3.522-.4-8.89 4.053-5.369 4.453-5.894-1.131-3.854-7.619 2.04-6.487 9.312-5.046 6.115-7.202-3.196-2.156.847-8.18 2.84-10.5 1.993-2.318 3.601 1.541 6.666 3.818ZM81.9 117.793c2.452 1.821 4.387.899 5.048.21-.22-.809-.491-2.776.173-4.164.831-1.735 6.32.011 13.975-1.692 7.655-1.703 4.779 9.68 4.736 13.723-.042 4.043-3.917 2.997-10.91 3.969-6.992.972-5.772 2.034-6.56-.274-.79-2.308-1.836-1.467-5.626-1.499-3.791-.032-1.642 9.032-3.713 7.176-2.071-1.856-3.522-.399-8.89 4.053-5.369 4.453-5.894-1.131-3.854-7.618 2.04-6.488 9.312-5.047 6.115-7.203-3.196-2.156.847-8.18 2.84-10.499 1.993-2.318 3.601 1.541 6.666 3.818Z"/><path stroke="#185068" stroke-linecap="round" stroke-linejoin="round" stroke-width="3" d="m92.966 92.242 6.994-1.632m-6.994 1.632.583 4.895-.815-5.225m.232.33-.232-.33m0 0-3.381-4.799-3.963 5.129 1.515 3.03-2.797.7"/><circle cx="85.977" cy="86.197" r="84.89" stroke="#93B7C4" stroke-dasharray="2 2"/></svg>