<svg xmlns="http://www.w3.org/2000/svg" xmlns:xlink="http://www.w3.org/1999/xlink" version="1.1" width="1000" height="1000" viewBox="0 0 1000 1000" xml:space="preserve">
<desc>Created with Fabric.js 3.5.0</desc>
<defs>
</defs>
<rect x="0" y="0" width="100%" height="100%" fill="#ffffff"/>
<g transform="matrix(0.1207 0 0 -0.1207 500.1885 500.1886)" id="711074">
<path style="stroke: none; stroke-width: 1; stroke-dasharray: none; stroke-linecap: butt; stroke-dashoffset: 0; stroke-linejoin: miter; stroke-miterlimit: 4; is-custom-font: none; font-file-url: none; fill: rgb(0,111,255); fill-opacity: 0.8; fill-rule: nonzero; opacity: 1;" vector-effect="non-scaling-stroke" transform=" translate(-5008.577, -4994.0645)" d="M 4520 9129 c -282 -41 -414 -67 -585 -114 c -33 -9 -78 -20 -100 -26 c -22 -5 -49 -13 -60 -18 c -11 -5 -54 -19 -95 -32 c -41 -13 -79 -26 -85 -31 c -5 -4 -15 -8 -23 -8 c -8 0 -28 -7 -45 -15 c -18 -8 -57 -24 -87 -35 c -238 -91 -587 -283 -841 -463 c -308 -218 -657 -554 -876 -843 c -54 -70 -68 -89 -117 -157 c -28 -40 -62 -90 -76 -112 c -13 -22 -28 -41 -32 -43 c -4 -2 -8 -8 -8 -14 c 0 -5 -13 -28 -29 -51 c -31 -46 -97 -162 -139 -247 c -15 -30 -30 -56 -34 -58 c -5 -2 -8 -8 -8 -14 c 0 -5 -15 -42 -34 -81 c -67 -144 -136 -312 -151 -367 c -3 -14 -10 -34 -15 -45 c -15 -34 -60 -177 -75 -235 c -7 -30 -22 -89 -33 -130 c -11 -41 -23 -95 -27 -120 c -3 -25 -10 -58 -15 -75 c -14 -52 -40 -216 -52 -330 c -15 -146 -15 -769 0 -910 c 12 -107 26 -209 42 -290 c 5 -22 15 -76 23 -120 c 9 -44 23 -107 32 -140 c 9 -33 25 -91 35 -130 c 18 -69 53 -180 70 -220 c 4 -11 25 -67 46 -125 c 57 -160 162 -384 254 -543 c 27 -48 50 -92 50 -97 c 0 -6 5 -10 10 -10 c 6 0 10 -5 10 -11 c 0 -12 163 -257 229 -344 c 280 -369 616 -692 983 -943 c 86 -60 237 -155 273 -174 c 17 -8 57 -30 90 -48 c 76 -42 215 -111 280 -139 c 28 -12 59 -26 70 -31 c 87 -39 116 -50 127 -50 c 8 0 18 -4 23 -8 c 6 -5 39 -19 75 -31 c 36 -13 74 -27 85 -32 c 11 -4 38 -13 60 -19 c 22 -6 61 -17 88 -25 c 26 -7 47 -11 47 -8 c 0 8 -39 62 -119 163 c -105 134 -356 387 -551 555 c -361 311 -510 510 -662 885 c -17 41 -36 93 -43 115 c -47 144 -209 543 -291 713 c -95 198 -104 226 -104 334 l 0 101 l 50 -6 c 158 -19 352 -230 504 -549 c 72 -150 87 -206 62 -227 c -48 -40 5 -176 126 -318 c 92 -108 309 -317 417 -401 c 47 -37 119 -100 160 -140 c 40 -40 75 -71 77 -69 c 3 2 -15 31 -40 63 c -57 76 -204 218 -326 315 c -183 145 -281 249 -349 370 c -35 62 -41 119 -14 140 c 26 22 110 15 188 -16 c 131 -51 335 -154 468 -236 c 26 -16 49 -29 52 -29 c 2 0 95 -57 207 -126 c 640 -398 949 -680 1104 -1008 c 66 -142 87 -235 87 -396 c 0 -136 -15 -230 -57 -349 c -9 -24 -16 -45 -16 -47 c 0 -2 77 -4 170 -4 c 94 0 170 2 170 4 c 0 2 -13 49 -30 104 c -43 144 -56 269 -42 387 c 54 436 368 790 1132 1272 c 504 318 862 489 953 454 c 49 -19 54 -50 19 -125 c -57 -122 -170 -245 -367 -401 c -119 -95 -305 -277 -329 -323 c -21 -42 -8 -41 26 1 c 14 19 82 78 150 133 c 143 115 374 337 460 442 c 109 133 158 264 113 302 c -22 18 -19 42 21 137 c 123 298 307 541 469 619 c 56 27 88 29 145 12 c 40 -13 40 -13 40 -65 c 0 -41 -4 -53 -15 -53 c -9 0 -18 -8 -22 -17 c -11 -33 -111 -257 -162 -366 c -28 -60 -51 -110 -51 -113 c 0 -2 -9 -23 -20 -47 c -10 -23 -33 -78 -50 -122 c -17 -44 -35 -89 -40 -100 c -5 -11 -34 -90 -65 -175 c -31 -85 -60 -164 -65 -175 c -5 -11 -19 -45 -30 -75 c -41 -106 -145 -291 -224 -398 c -88 -120 -294 -330 -431 -442 c -149 -122 -459 -441 -564 -580 c -52 -69 -98 -130 -103 -136 c -9 -12 39 -7 57 6 c 6 4 27 11 49 14 c 21 4 46 11 55 16 c 9 5 50 19 91 31 c 41 13 79 26 85 31 c 5 4 16 8 25 8 c 8 0 28 7 44 15 c 15 8 33 15 38 15 c 5 0 30 9 56 21 c 26 11 56 24 67 29 c 11 5 55 25 97 44 c 42 20 81 36 86 36 c 6 0 12 3 14 8 c 2 4 35 23 73 42 c 219 108 553 330 760 504 c 356 302 679 681 917 1081 c 45 75 201 382 229 450 c 4 11 17 43 29 70 c 12 28 25 59 30 70 c 14 34 68 189 75 215 c 3 14 10 34 15 45 c 8 18 34 108 60 205 c 10 35 25 105 53 235 c 13 59 28 153 53 333 c 3 17 9 32 14 32 c 15 0 13 887 -1 892 c -6 2 -15 37 -20 78 c -17 141 -56 358 -83 460 c -8 30 -22 82 -30 115 c -18 72 -92 297 -112 342 c -8 17 -14 35 -14 41 c 0 5 -7 23 -15 38 c -8 16 -15 36 -15 45 c 0 8 -4 19 -9 25 c -5 5 -20 36 -34 69 c -98 235 -319 617 -466 806 c -20 25 -47 61 -61 79 c -53 72 -209 250 -305 349 c -251 259 -610 540 -890 696 c -212 118 -239 132 -375 192 c -30 13 -64 28 -75 33 c -68 30 -120 51 -200 80 c -49 18 -99 36 -110 40 c -11 5 -54 18 -95 30 c -41 12 -86 26 -100 31 c -100 36 -380 91 -655 129 c -84 11 -877 11 -955 -1 z m 323 -300 c 29 -8 41 -18 49 -39 c 6 -20 27 -39 63 -59 c 51 -29 95 -82 95 -115 c 0 -27 -27 -18 -69 24 c -22 22 -45 41 -53 42 c -7 1 -38 3 -68 4 c -115 6 -190 13 -200 19 c -15 9 -12 38 10 89 l 21 46 l 57 0 c 31 0 74 -5 95 -11 z m -61 -174 c -4 -13 -63 -8 -77 6 c -7 7 4 9 35 7 c 25 -2 44 -7 42 -13 z m -27 -38 c 17 0 39 2 50 4 c 14 3 25 -5 35 -26 c 9 -16 22 -31 29 -33 c 18 -4 150 -122 162 -144 c 17 -31 -17 -33 -52 -3 c -18 14 -55 38 -83 52 c -45 23 -56 25 -96 16 c -25 -6 -79 -10 -120 -9 l -75 1 l 2 63 c 2 83 14 96 73 86 c 25 -4 59 -7 75 -7 z m 18 -187 c 31 0 12 -25 -20 -27 c -17 0 -40 -6 -51 -12 c -12 -6 -33 -11 -47 -11 c -22 0 -26 4 -23 22 c 4 26 38 39 88 33 c 19 -3 43 -5 53 -5 z m 121 -84 c 22 -24 64 -56 93 -70 c 58 -29 70 -43 54 -59 c -8 -8 -25 -4 -65 16 c -63 32 -103 34 -153 7 c -21 -11 -51 -20 -68 -20 c -16 0 -49 -10 -72 -22 c -58 -31 -76 -19 -85 57 c -9 70 0 85 52 85 c 21 0 53 6 71 14 c 24 10 39 11 52 4 c 15 -8 22 -5 34 11 c 21 31 41 26 87 -23 z m -104 -187 c -74 -60 -131 -76 -144 -43 c -4 9 -5 17 -4 18 c 63 32 90 42 123 46 c 51 7 55 3 25 -21 z m 167 -31 c 7 -16 19 -40 26 -55 c 8 -18 33 -39 72 -58 c 33 -17 61 -38 63 -47 c 5 -28 -29 -22 -105 17 c -37 19 -74 35 -82 35 c -7 0 -28 -13 -46 -29 c -20 -17 -51 -32 -77 -36 c -24 -4 -65 -16 -91 -28 c -63 -26 -77 -14 -80 68 l -2 59 l 49 8 c 28 4 61 16 75 28 c 14 11 37 26 50 32 c 21 11 26 9 47 -15 l 23 -28 l 7 28 c 11 50 14 54 36 51 c 13 -2 28 -15 35 -30 z m -82 -219 c 4 -11 5 -23 2 -25 c -2 -3 -33 -9 -67 -15 c -35 -5 -71 -14 -80 -19 c -19 -10 -30 -4 -30 16 c 0 12 50 34 120 53 c 49 13 48 13 55 -10 z m 130 -81 c 19 -41 24 -44 114 -75 c 90 -31 116 -47 105 -65 c -9 -15 -49 -8 -139 22 c -105 36 -122 37 -151 9 c -12 -11 -41 -25 -65 -30 c -23 -5 -55 -19 -71 -30 c -40 -29 -74 -19 -83 23 c -4 18 -12 38 -17 45 c -17 21 -4 57 29 76 c 17 10 64 21 103 26 c 45 4 77 13 87 24 c 10 9 29 17 43 17 c 20 0 30 -9 45 -42 z m -51 -194 c 5 -17 1 -24 -21 -33 c -75 -31 -189 -32 -157 -2 c 18 18 89 51 109 51 c 11 0 27 5 35 10 c 17 10 25 4 34 -26 z m 230 -53 c 25 -22 59 -42 75 -46 c 31 -7 81 -47 81 -65 c 0 -24 -33 -20 -99 10 c -77 36 -93 33 -106 -18 c -8 -33 -21 -42 -61 -42 c -16 0 -34 -4 -40 -10 c -5 -5 -37 -15 -69 -20 c -33 -6 -81 -18 -106 -27 c -26 -9 -53 -14 -61 -11 c -8 4 -23 36 -33 73 c -17 65 -17 67 1 85 c 12 12 46 23 88 30 c 38 6 77 15 87 20 c 26 14 50 12 70 -6 c 16 -14 18 -13 24 15 c 14 64 82 70 149 12 z m -164 -240 c 0 -5 3 -16 6 -24 c 7 -20 -91 -57 -151 -57 c -41 0 -45 2 -45 24 c 0 24 13 31 100 60 c 27 8 90 6 90 -3 z m 210 -16 c 7 -8 30 -18 51 -21 c 45 -7 52 -15 69 -69 c 7 -22 25 -53 40 -70 c 48 -53 61 -77 48 -92 c -22 -27 -48 -14 -84 43 l -36 57 l -58 -6 c -34 -4 -72 -2 -91 5 c -28 9 -34 8 -46 -7 c -7 -11 -13 -31 -13 -46 c 0 -15 -6 -31 -12 -36 c -21 -13 -179 -53 -235 -59 c -50 -6 -53 -5 -63 20 c -14 38 -12 129 3 150 c 9 12 34 20 83 26 c 38 4 86 15 106 24 c 21 9 52 15 70 14 c 25 -2 34 2 45 22 c 27 55 95 79 123 45 z m -160 -339 c 0 -31 -3 -34 -42 -45 c -24 -7 -74 -11 -113 -9 c -62 3 -70 5 -70 23 c 0 13 9 21 30 26 c 17 4 64 16 105 27 c 41 11 78 18 83 15 c 4 -2 7 -19 7 -37 z m 195 -87 c 16 -24 40 -46 61 -55 c 19 -8 35 -18 35 -22 c 1 -4 2 -34 3 -68 c 1 -39 8 -71 19 -87 c 19 -29 22 -72 7 -82 c -17 -11 -40 15 -65 71 c -21 48 -25 51 -66 57 c -24 4 -56 9 -70 12 c -23 6 -27 2 -42 -35 l -16 -41 l -69 6 c -49 5 -94 2 -155 -10 c -48 -9 -93 -15 -101 -12 c -11 4 -13 19 -9 65 c 4 42 1 75 -11 108 c -15 44 -15 49 1 66 c 13 15 32 18 111 18 c 56 0 116 6 149 16 c 51 15 56 15 74 -2 c 10 -9 19 -23 19 -31 c 0 -7 5 -13 10 -13 c 6 0 10 8 10 18 c 0 29 29 62 55 62 c 18 0 32 -11 50 -41 z m -190 -323 c 0 -44 8 -41 -123 -52 c -87 -8 -135 7 -130 40 c 2 17 16 24 73 38 c 39 9 95 16 125 15 l 55 -2 l 0 -39 z m 133 -58 c 7 -7 12 -20 12 -29 c 0 -10 13 -28 29 -41 c 52 -41 71 -89 71 -176 c 0 -96 -7 -122 -31 -122 c -18 0 -23 12 -43 103 c -4 15 -14 30 -24 33 c -9 3 -32 12 -50 20 c -32 14 -35 13 -60 -14 c -48 -51 -60 -53 -172 -37 c -56 9 -116 13 -135 9 c -26 -4 -38 -1 -54 15 c -17 17 -18 24 -8 53 c 6 18 11 65 11 105 c 1 39 4 75 8 79 c 4 3 30 -3 57 -15 c 51 -22 148 -27 201 -11 c 17 5 35 1 57 -12 l 32 -19 l 36 35 c 39 39 45 42 63 24 z m -264 -302 c 48 -8 90 -16 91 -18 c 2 -2 1 -14 -2 -28 c -5 -29 -59 -60 -103 -60 c -27 0 -154 41 -167 54 c -3 3 -3 16 1 30 c 6 23 17 29 76 34 c 8 1 55 -5 104 -12 z m -136 -116 c 90 -33 157 -38 188 -15 c 26 20 40 19 74 -7 c 29 -21 30 -21 75 -3 c 44 16 47 16 65 0 c 11 -10 34 -39 50 -66 c 28 -43 30 -52 24 -101 c -7 -57 -19 -88 -34 -88 c -6 0 -10 11 -10 24 c 0 38 -20 51 -109 70 c -90 19 -111 13 -111 -28 c 0 -12 -7 -32 -16 -44 c -19 -28 -61 -29 -139 -2 c -31 11 -91 24 -132 29 c -70 9 -113 29 -113 54 c 0 5 16 35 35 67 c 23 37 35 70 35 93 c 0 31 8 43 31 46 c 3 1 42 -12 87 -29 z m 60 -302 c 78 -23 80 -25 61 -92 l -11 -39 l -56 7 c -31 4 -94 18 -140 33 c -92 28 -92 29 -64 104 c 10 25 11 26 74 17 c 34 -4 96 -18 136 -30 z m 270 -106 c 15 -16 47 -53 70 -83 c 38 -46 43 -58 38 -87 c -6 -37 -31 -72 -52 -72 c -8 0 -25 18 -40 39 c -14 22 -32 42 -40 45 c -18 7 -41 -17 -49 -54 c -4 -16 -16 -37 -27 -44 c -18 -13 -26 -13 -55 -1 c -42 18 -57 12 -82 -31 c -25 -42 -49 -44 -151 -9 c -42 14 -111 28 -159 32 c -62 5 -89 11 -103 25 c -24 24 -23 38 8 84 c 15 21 33 59 40 85 c 8 26 21 52 29 59 c 20 16 82 9 189 -23 c 48 -15 112 -27 141 -27 c 35 0 57 -5 65 -15 c 21 -26 37 -17 58 35 c 30 73 76 89 120 42 z m -411 -331 c 121 -41 112 -32 98 -93 c -7 -29 -16 -52 -21 -51 c -5 1 -35 11 -67 23 c -31 11 -102 26 -157 32 c -73 9 -99 15 -96 24 c 3 7 10 32 16 55 l 12 42 l 78 -6 c 43 -4 105 -15 137 -26 z m 295 -97 c 17 -9 52 -18 77 -21 c 57 -5 97 -40 115 -103 c 17 -58 8 -70 -56 -70 c -62 0 -83 -11 -107 -58 c -32 -62 -52 -75 -109 -67 c -45 6 -52 4 -94 -28 c -25 -19 -54 -37 -64 -41 c -11 -3 -62 3 -114 14 c -52 11 -142 23 -200 26 c -164 10 -178 30 -115 168 c 19 43 35 88 35 100 c 0 13 6 28 13 34 c 46 39 266 15 382 -42 c 112 -54 152 -46 162 34 c 6 46 18 70 35 70 c 5 0 23 -7 40 -16 z m 194 -399 c 25 -38 25 -156 0 -184 c -25 -27 -45 -27 -86 4 c -30 22 -36 24 -49 10 c -13 -13 -13 -22 -3 -60 c 19 -73 16 -100 -18 -129 c -38 -31 -86 -41 -153 -31 c -108 16 -119 14 -132 -24 c -6 -19 -23 -44 -38 -54 c -24 -18 -30 -19 -84 -7 c -32 7 -119 16 -193 19 l -135 6 l -16 32 c -14 28 -14 39 -2 95 c 7 35 10 80 7 100 c -5 33 -2 42 24 68 c 28 27 37 30 94 30 c 35 0 90 -7 123 -15 c 83 -20 152 -18 204 5 c 52 24 65 25 81 4 c 42 -50 80 -30 80 41 c 0 47 16 71 53 80 c 59 15 166 33 194 34 c 24 1 37 -5 49 -24 z m -566 -13 c 81 -16 85 -18 88 -45 c 2 -16 -2 -35 -9 -43 c -15 -19 -97 -18 -169 1 c -30 8 -84 15 -118 15 l -64 0 l 7 43 c 4 23 10 46 13 51 c 7 12 147 0 252 -22 z m 505 -528 c 125 -86 131 -108 49 -184 c -38 -35 -50 -41 -82 -38 c -34 3 -39 8 -64 56 c -14 29 -29 49 -32 44 c -3 -5 -8 -36 -12 -68 c -4 -33 -11 -65 -17 -71 c -6 -8 -35 -13 -77 -13 l -68 0 l 5 -39 c 5 -34 2 -41 -20 -56 c -14 -9 -53 -23 -86 -30 c -33 -8 -110 -31 -171 -50 c -61 -20 -123 -35 -138 -33 c -35 4 -52 39 -52 108 c 0 30 -9 78 -20 107 c -22 60 -16 92 22 116 c 33 21 365 40 400 23 c 25 -12 63 31 71 81 c 7 42 20 53 127 110 c 36 19 60 10 165 -63 z m -536 31 c 45 -9 91 -13 102 -10 c 12 4 19 2 19 -7 c 0 -7 3 -29 6 -49 l 6 -36 l -113 -12 c -63 -6 -144 -12 -181 -14 c -77 -2 -78 -1 -78 91 l 0 52 l 79 0 c 43 0 116 -7 160 -15 z m -1829 -62 c 87 -99 159 -306 242 -698 c 39 -185 94 -532 86 -541 c -4 -3 -47 7 -95 24 c -48 16 -124 36 -168 43 c -44 7 -83 15 -87 18 c -4 4 -12 128 -18 276 c -15 379 -51 644 -106 792 c -37 98 -38 102 -24 118 c 8 10 31 15 70 15 c 57 0 59 -1 100 -47 z m 4550 32 c 14 -17 12 -29 -29 -145 c -56 -161 -87 -404 -100 -793 c -4 -130 -12 -241 -17 -245 c -5 -5 -44 -14 -87 -21 c -42 -7 -116 -26 -164 -42 c -48 -16 -90 -29 -95 -29 c -4 0 -5 26 -2 58 c 14 128 100 590 123 665 c 6 18 22 79 37 137 c 15 58 30 110 34 115 c 4 6 10 24 14 40 c 14 58 84 192 121 233 c 36 40 40 42 95 42 c 39 0 62 -5 70 -15 z m -4262 -170 c 98 -108 185 -362 252 -735 c 69 -384 91 -523 82 -532 c -7 -7 -20 -3 -39 10 c -15 11 -63 41 -106 67 c -42 26 -80 51 -83 56 c -3 5 -20 93 -39 196 c -80 444 -164 773 -230 908 l -25 50 l 22 19 c 18 14 34 17 73 13 c 44 -4 54 -10 93 -52 z m 3977 42 c 17 -13 17 -18 -18 -98 c -19 -46 -48 -127 -62 -179 c -15 -52 -33 -115 -40 -140 c -29 -100 -103 -464 -144 -713 c -5 -26 -10 -49 -12 -51 c -15 -14 -223 -136 -231 -136 c -6 0 -8 13 -5 33 c 108 629 130 736 177 892 c 67 219 148 367 215 395 c 32 14 99 11 120 -3 z m -1926 -248 c 36 -18 73 -35 81 -39 c 24 -11 23 -44 -2 -66 c -13 -11 -45 -29 -72 -39 c -92 -34 -107 -75 -35 -97 c 57 -17 64 -30 61 -114 l -3 -72 l 57 -49 c 92 -79 98 -108 39 -167 c -33 -33 -31 -59 5 -115 c 47 -75 61 -118 61 -191 c 0 -123 -57 -242 -172 -361 c -58 -60 -71 -69 -102 -69 c -27 0 -41 7 -56 26 c -27 34 -26 40 6 119 l 27 66 l -17 67 c -23 91 -22 106 13 145 c 63 72 23 136 -104 168 c -44 10 -100 31 -125 46 c -52 30 -141 110 -141 127 c 0 6 -21 45 -45 86 c -25 41 -45 85 -45 98 c 0 61 46 102 180 157 c 110 46 145 76 185 159 c 41 85 69 124 99 136 c 31 13 34 12 105 -21 z m -248 -53 c 29 -62 -32 -132 -161 -186 c -46 -19 -101 -48 -122 -63 c -21 -15 -43 -25 -48 -22 c -7 5 -70 155 -70 169 c 0 4 68 27 315 104 c 33 11 63 20 68 21 c 4 0 12 -10 18 -23 z m -1431 -148 c 16 -22 30 -49 30 -59 c 0 -10 4 -20 8 -23 c 13 -8 68 -226 102 -411 c 40 -211 121 -476 166 -539 c 18 -26 18 -46 -1 -46 c -8 0 -73 37 -146 82 c -90 56 -134 90 -141 107 c -9 24 -30 140 -93 501 c -13 74 -37 186 -55 249 c -25 92 -28 116 -18 130 c 25 33 54 51 85 51 c 27 0 38 -7 63 -42 z m 3178 26 c 43 -30 44 -45 12 -170 c -16 -63 -41 -179 -54 -257 c -78 -452 -89 -497 -120 -522 c -46 -36 -267 -167 -273 -161 c -3 3 10 41 29 83 c 58 128 108 296 148 498 c 21 111 47 226 77 345 c 17 68 54 152 81 183 c 19 21 70 22 100 1 z" stroke-linecap="round"/>
</g>
</svg>